<svg xmlns="http://www.w3.org/2000/svg" viewBox="25 65 300 180" xml:space="preserve"><path d="M53.6 134.8c-0.533 0 -0.667 -0.267 -0.4 -0.667l2.8 -3.6c0.267 -0.4 0.933 -0.667 1.467 -0.667h47.6c0.533 0 0.667 0.4 0.4 0.8l-2.267 3.467c-0.267 0.4 -0.933 0.8 -1.333 0.8zm-20.133 12.267c-0.533 0 -0.667 -0.267 -0.4 -0.667l2.8 -3.6c0.267 -0.4 0.933 -0.667 1.467 -0.667h60.8c0.533 0 0.8 0.4 0.667 0.8l-1.067 3.2c-0.133 0.533 -0.667 0.8 -1.2 0.8zm32.267 12.267c-0.533 0 -0.667 -0.4 -0.4 -0.8l1.867 -3.333c0.267 -0.4 0.8 -0.8 1.333 -0.8h26.667c0.533 0 0.8 0.4 0.8 0.933l-0.267 3.2c0 0.533 -0.533 0.933 -0.933 0.933zm138.4 -26.933c-8.4 2.133 -14.133 3.733 -22.4 5.867 -2 0.533 -2.133 0.667 -3.867 -1.333 -2 -2.267 -3.467 -3.733 -6.267 -5.067 -8.4 -4.133 -16.533 -2.933 -24.133 2 -9.067 5.867 -13.733 14.533 -13.6 25.333 0.133 10.667 7.467 19.467 18 20.933 9.067 1.2 16.667 -2 22.667 -8.8 1.2 -1.467 2.267 -3.067 3.6 -4.933h-25.733c-2.8 0 -3.467 -1.733 -2.533 -4 1.733 -4.133 4.933 -11.067 6.8 -14.533 0.4 -0.8 1.333 -2.133 3.333 -2.133h48.533c-0.267 3.6 -0.267 7.2 -0.8 10.8 -1.467 9.6 -5.067 18.4 -10.933 26.133 -9.6 12.667 -22.133 20.533 -38 22.667 -13.067 1.733 -25.2 -0.8 -35.867 -8.8 -9.867 -7.467 -15.467 -17.333 -16.933 -29.6 -1.733 -14.533 2.533 -27.6 11.333 -39.067 9.467 -12.4 22 -20.267 37.333 -23.067 12.533 -2.267 24.533 -0.8 35.333 6.533 7.067 4.667 12.133 11.067 15.467 18.8 0.8 1.2 0.267 1.867 -1.333 2.267"/><path d="M248.267 206.133c-12.133 -0.267 -23.2 -3.733 -32.533 -11.733 -7.867 -6.8 -12.8 -15.467 -14.4 -25.733 -2.4 -15.067 1.733 -28.4 10.8 -40.267 9.733 -12.8 21.467 -19.467 37.333 -22.267 13.6 -2.4 26.4 -1.067 38 6.8 10.533 7.2 17.067 16.933 18.8 29.733 2.267 18 -2.933 32.667 -15.333 45.2 -8.8 8.933 -19.6 14.533 -32 17.067 -3.6 0.667 -7.2 0.8 -10.667 1.2m31.733 -53.867c-0.133 -1.733 -0.133 -3.067 -0.4 -4.4 -2.4 -13.2 -14.533 -20.667 -27.2 -17.733 -12.4 2.8 -20.4 10.667 -23.333 23.2 -2.4 10.4 2.667 20.933 12.267 25.2 7.333 3.2 14.667 2.8 21.733 -0.8 10.533 -5.467 16.267 -14 16.933 -25.467"/></svg>